<?xml version="1.0" encoding="UTF-8"?> <svg xmlns="http://www.w3.org/2000/svg" width="196" height="40" viewBox="0 0 196 40" fill="none"><g clip-path="url(#clip0_101_1117)"><path d="M55.5975 33.5041C55.1395 33.5203 54.6871 33.3989 54.2987 33.1556C53.9539 32.9311 53.6911 32.601 53.5495 32.2147C53.4016 31.7941 53.3798 31.3395 53.4867 30.9067C53.5538 30.577 53.6908 30.2657 53.8887 29.9936C54.0675 29.7555 54.2923 29.5557 54.5496 29.4058C54.8166 29.2546 55.1015 29.1375 55.3976 29.0573C55.7074 28.9714 56.0238 28.8994 56.3467 28.8413L59.0487 28.3604C59.1478 27.9352 59.1478 27.5836 59.0487 27.3056C58.9986 27.1685 58.9214 27.043 58.8216 26.9366C58.7218 26.8302 58.6014 26.7451 58.4679 26.6864C58.1339 26.5421 57.7721 26.4734 57.4084 26.4855C57.2189 26.487 57.0295 26.5002 56.8416 26.525C56.6216 26.5544 56.4033 26.5951 56.1876 26.6469C55.9552 26.7027 55.7148 26.7712 55.4662 26.8525C55.2176 26.9339 54.9585 27.0314 54.6914 27.1476L54.9039 25.9105C55.077 25.8431 55.2757 25.7769 55.4987 25.7141C55.7217 25.6514 55.9634 25.598 56.2073 25.5364C56.4513 25.4748 56.7103 25.4388 56.9682 25.4063C57.2187 25.3755 57.4709 25.36 57.7233 25.3598C58.4109 25.3598 58.9689 25.4845 59.3972 25.7339C59.8075 25.9616 60.1178 26.3345 60.2672 26.7794C60.4206 27.2278 60.4299 27.754 60.2998 28.358C60.2475 28.5904 60.1906 28.8506 60.1302 29.1259C60.0698 29.4012 60.0047 29.7067 59.9373 30.0354L59.7399 30.981C59.6609 31.3295 59.5807 31.6943 59.4994 32.0799C59.4181 32.4656 59.3275 32.8931 59.2276 33.3519H58.0392L58.2216 32.2809H58.095C57.8874 32.5364 57.6477 32.764 57.3817 32.9581C57.1306 33.1404 56.8511 33.2801 56.5546 33.3717C56.2441 33.4637 55.9214 33.5084 55.5975 33.5041ZM56.0551 32.4249C56.3411 32.4223 56.624 32.3659 56.8892 32.2588C57.1915 32.1374 57.4711 31.9658 57.7163 31.7512C58.0085 31.4947 58.2606 31.196 58.4644 30.8649L58.8268 29.1723C58.7105 29.2348 58.5893 29.2876 58.4644 29.3303C58.318 29.3822 58.1054 29.4426 57.8266 29.5115C57.5478 29.5805 57.1645 29.6645 56.6766 29.7636C56.3839 29.821 56.0949 29.8959 55.8112 29.9878C55.569 30.0627 55.3459 30.1891 55.1572 30.3584C54.9769 30.5305 54.855 30.7547 54.8087 30.9996C54.715 31.472 54.7889 31.8279 55.0306 32.0672C55.2722 32.3065 55.6137 32.4257 56.0551 32.4249Z" fill="#A7A9AB"></path><path d="M61.54 33.3461C61.6608 32.7583 61.7789 32.1976 61.8943 31.6641C62.0097 31.1305 62.136 30.5438 62.273 29.9042L62.438 29.1247L62.7133 27.8202C62.7985 27.4244 62.8802 27.0411 62.9584 26.6702C63.0374 26.3007 63.1175 25.9209 63.2023 25.5329H66.6675C67.2824 25.5329 67.7695 25.6285 68.1289 25.8198C68.4574 25.9781 68.7165 26.2513 68.8572 26.5877C68.9852 26.9279 69.0071 27.2989 68.92 27.6517C68.8382 28.0561 68.6304 28.4241 68.3264 28.703C68.0325 28.9659 67.6794 29.1536 67.2971 29.2502L67.2739 29.3663C67.5013 29.4196 67.7123 29.5277 67.8884 29.6811C68.0937 29.861 68.2453 30.0942 68.3264 30.3549C68.4235 30.6961 68.4275 31.0571 68.338 31.4004C68.2676 31.7695 68.1152 32.118 67.8919 32.4203C67.6743 32.7115 67.332 32.9388 66.865 33.1022C66.398 33.2656 65.7398 33.3469 64.8902 33.3461H61.54ZM63.0281 32.3006H64.8554C65.2632 32.3116 65.6709 32.2726 66.0693 32.1845C66.3282 32.1311 66.5662 32.004 66.7547 31.8186C66.9149 31.6373 67.0211 31.4147 67.0613 31.1762C67.1612 30.7355 67.0733 30.4048 66.7976 30.1841C66.5219 29.9634 66.0859 29.8515 65.4896 29.8484H63.1989L63.4114 28.8959H65.6186C65.9724 28.9056 66.3255 28.8578 66.664 28.7541C66.9017 28.6808 67.1151 28.5447 67.282 28.3603C67.4235 28.1934 67.5209 27.9937 67.5655 27.7795C67.6549 27.3695 67.5771 27.0686 67.3331 26.8734C67.0892 26.6783 66.7279 26.5819 66.2505 26.5819H64.2467C64.1619 26.9873 64.0794 27.3776 63.9981 27.7563C63.9168 28.135 63.8238 28.5694 63.7193 29.0631L63.545 29.8821C63.4451 30.3661 63.3561 30.7944 63.2779 31.1669C63.1996 31.5394 63.1179 31.9165 63.0327 32.2983L63.0281 32.3006Z" fill="#A7A9AB"></path><path d="M71.7136 33.3461C71.8391 32.7583 71.9599 32.1965 72.076 31.6606C72.1922 31.1247 72.32 30.5365 72.4594 29.896L72.6243 29.1166C72.7196 28.6643 72.8063 28.2535 72.8845 27.8841L73.1169 26.813C73.1912 26.4645 73.2667 26.1102 73.3492 25.7373L73.6013 26.5958H70.4648L70.6972 25.5329H77.3999L77.1675 26.5958H74.0311L74.6456 25.7373C74.5666 26.1102 74.4911 26.4692 74.4133 26.813C74.3354 27.1569 74.2634 27.51 74.1809 27.8841C74.0985 28.2581 74.016 28.6647 73.9207 29.1166L73.7558 29.896C73.6187 30.5373 73.4925 31.1254 73.3771 31.6606C73.2617 32.1957 73.1413 32.7575 73.0158 33.3461H71.7136Z" fill="#A7A9AB"></path><path d="M81.1004 33.5192C80.4864 33.5363 79.877 33.4082 79.3219 33.1452C78.8538 32.9154 78.4535 32.5679 78.1602 32.1369C77.8724 31.7029 77.6843 31.2106 77.6096 30.6952C77.5255 30.1389 77.5416 29.572 77.6573 29.0213C77.7926 28.3021 78.0853 27.6218 78.5145 27.0291C78.902 26.4993 79.4103 26.0695 79.9973 25.7756C80.5842 25.4816 81.2327 25.3319 81.8891 25.3389C82.4905 25.3235 83.0872 25.4488 83.6316 25.7048C84.1022 25.9337 84.5074 26.2777 84.8095 26.705C85.1096 27.1354 85.3082 27.6283 85.3903 28.1466C85.4796 28.7084 85.4607 29.2821 85.3345 29.8368C85.1945 30.5278 84.9146 31.1828 84.5121 31.7616C84.1374 32.3005 83.6407 32.7431 83.0624 33.0534C82.4576 33.3701 81.783 33.5303 81.1004 33.5192ZM81.148 32.3854C81.6261 32.3954 82.0974 32.271 82.5083 32.0265C82.9029 31.7831 83.2344 31.45 83.4759 31.0542C83.7335 30.6347 83.9163 30.1736 84.0161 29.6916C84.1372 29.1613 84.1372 28.6106 84.0161 28.0804C83.912 27.6241 83.659 27.2154 83.297 26.9187C82.9361 26.6268 82.4645 26.4808 81.8821 26.4808C81.4023 26.4722 80.9289 26.5925 80.5114 26.8293C80.108 27.0635 79.7685 27.3935 79.5228 27.79C79.2562 28.2139 79.0673 28.682 78.9653 29.1723C78.8501 29.695 78.8501 30.2365 78.9653 30.7591C79.0635 31.2234 79.3166 31.6404 79.6832 31.9417C80.0467 32.2368 80.5358 32.3854 81.148 32.3854Z" fill="#A7A9AB"></path><path d="M85.5117 33.3461C85.8219 32.9976 86.0925 32.6886 86.3249 32.4284C86.5572 32.1682 86.7721 31.9208 86.9765 31.6838L87.6306 30.9357L89.1872 29.1723L89.1326 29.5429L88.3287 27.8655C88.197 27.5967 88.0747 27.3474 87.9616 27.1174C87.8455 26.885 87.7293 26.6446 87.6131 26.3925C87.497 26.1404 87.3506 25.8535 87.1996 25.5341L88.5854 25.4783C88.7539 25.8407 88.906 26.1753 89.0385 26.4785C89.1709 26.7817 89.308 27.0907 89.4439 27.4008L90.0247 28.6682H90.1165L91.1875 27.4078C91.4663 27.0779 91.7281 26.7681 91.9728 26.4785C92.2175 26.1888 92.4885 25.8725 92.7859 25.5294H94.4227C94.1183 25.8647 93.8531 26.1559 93.627 26.403L92.9939 27.1L92.3364 27.8167L90.8077 29.4941L90.8228 29.1456L91.7521 30.9415C91.9565 31.3248 92.1501 31.6977 92.3329 32.0602C92.5157 32.4226 92.7375 32.8485 92.9985 33.338H91.5302C91.3687 33.0023 91.2189 32.6944 91.0864 32.4168C90.954 32.1392 90.8007 31.8278 90.6311 31.4875L89.9794 30.1086H89.8632L88.7283 31.4399C88.4348 31.7814 88.1637 32.0966 87.9152 32.3854C87.6666 32.6743 87.3955 32.9918 87.102 33.338L85.5117 33.3461Z" fill="#A7A9AB"></path><path d="M98.2397 33.5192C97.6253 33.5362 97.0156 33.4081 96.4601 33.1452C95.992 32.9155 95.5916 32.568 95.2984 32.1368C95.0101 31.7032 94.822 31.2107 94.7478 30.6952C94.6633 30.139 94.6791 29.5721 94.7943 29.0213C94.9295 28.3019 95.2227 27.6215 95.6527 27.0291C96.0403 26.4991 96.5488 26.0693 97.136 25.7753C97.7231 25.4813 98.3719 25.3317 99.0285 25.3389C99.6299 25.3233 100.227 25.4486 100.771 25.7048C101.242 25.9337 101.647 26.2777 101.949 26.705C102.249 27.1352 102.448 27.6282 102.53 28.1466C102.619 28.7084 102.6 29.2821 102.474 29.8368C102.335 30.5281 102.055 31.1833 101.651 31.7616C101.277 32.301 100.78 32.7437 100.202 33.0534C99.597 33.3704 98.9224 33.5306 98.2397 33.5192ZM98.2885 32.3854C98.7643 32.3946 99.2331 32.2702 99.6418 32.0265C100.037 31.7835 100.369 31.4503 100.611 31.0542C100.87 30.6355 101.053 30.1742 101.152 29.6916C101.273 29.1613 101.273 28.6106 101.152 28.0804C101.048 27.6241 100.795 27.2154 100.433 26.9187C100.073 26.6268 99.6012 26.4808 99.018 26.4808C98.5382 26.4725 98.0649 26.5928 97.6473 26.8293C97.2442 27.0639 96.9047 27.3937 96.6587 27.79C96.3941 28.2145 96.2069 28.6825 96.1058 29.1723C95.9895 29.6949 95.9895 30.2366 96.1058 30.7591C96.204 31.2234 96.4571 31.6404 96.8237 31.9417C97.1853 32.2375 97.6736 32.3854 98.2885 32.3854Z" fill="#A7A9AB"></path><path d="M103.519 33.4878C103.429 33.4878 103.326 33.4878 103.211 33.4762C103.096 33.4646 102.979 33.4565 102.873 33.4402C102.767 33.4239 102.663 33.4065 102.573 33.3856L102.888 32.2588C102.972 32.2799 103.058 32.2947 103.145 32.303C103.231 32.3099 103.3 32.3146 103.354 32.3146C103.495 32.3142 103.634 32.2858 103.764 32.2309C103.893 32.1761 104.011 32.0959 104.109 31.9951C104.353 31.7464 104.55 31.4556 104.69 31.1367C104.867 30.7487 105.02 30.3503 105.149 29.9437C105.288 29.5084 105.418 29.0697 105.54 28.6275C105.681 28.1025 105.824 27.5774 105.969 27.0523C106.113 26.5273 106.254 26.0208 106.39 25.5329H111.904C111.826 25.9201 111.749 26.2969 111.671 26.6632C111.592 27.0326 111.51 27.4159 111.427 27.8132C111.345 28.2105 111.25 28.6438 111.152 29.1166L110.985 29.896C110.848 30.5419 110.723 31.1328 110.607 31.6687C110.492 32.2046 110.374 32.7637 110.253 33.3461H108.953C109.074 32.763 109.192 32.2038 109.308 31.6687C109.425 31.1336 109.551 30.5427 109.687 29.896L109.852 29.1166C109.946 28.6643 110.033 28.2535 110.112 27.8841C110.189 27.5135 110.267 27.1569 110.339 26.813C110.411 26.4692 110.489 26.1102 110.571 25.7373L111.162 26.5958H106.696L107.538 25.7373C107.444 26.0998 107.344 26.4692 107.235 26.8479C107.126 27.2266 107.023 27.6041 106.92 27.9816C106.817 28.3592 106.713 28.7355 106.609 29.1084C106.437 29.7226 106.262 30.2949 106.085 30.8253C105.93 31.3079 105.73 31.7747 105.487 32.2193C105.29 32.587 105.012 32.9049 104.673 33.1486C104.334 33.3802 103.93 33.4989 103.519 33.4878Z" fill="#A7A9AB"></path><path d="M111.175 35.5195C111.227 35.257 111.282 34.9945 111.341 34.7319C111.4 34.4694 111.457 34.2046 111.506 33.9362C111.555 33.6679 111.622 33.3856 111.687 33.1022C111.752 32.8187 111.803 32.5423 111.86 32.2751H120.634C120.576 32.5423 120.518 32.8187 120.461 33.1022C120.404 33.3856 120.345 33.669 120.28 33.9525C120.215 34.2359 120.164 34.4892 120.109 34.7436C120.054 34.998 120.001 35.257 119.95 35.5195H118.815L119.247 33.173L119.5 33.3461H112.536L112.866 33.173L112.316 35.5195H111.175ZM117.972 33.1417C118.051 32.7839 118.125 32.4447 118.192 32.1055C118.26 31.7663 118.335 31.4259 118.412 31.06C118.488 30.6941 118.576 30.3072 118.665 29.8821L118.83 29.1026C118.925 28.6566 119.012 28.2496 119.09 27.8817C119.169 27.5147 119.246 27.1569 119.323 26.8107C119.399 26.4645 119.472 26.1044 119.555 25.7315L119.958 26.5981H115.728L116.523 25.7315C116.434 26.0731 116.346 26.4041 116.258 26.7236C116.17 27.043 116.083 27.3776 115.991 27.7238C115.899 28.0699 115.793 28.4568 115.673 28.8854C115.546 29.364 115.401 29.8259 115.239 30.2712C115.085 30.6986 114.895 31.1124 114.673 31.5084C114.464 31.8749 114.207 32.2114 113.908 32.5086L112.615 32.3355C112.847 32.1499 113.052 31.9338 113.226 31.6931C113.488 31.3313 113.71 30.9417 113.887 30.5314C114.153 29.923 114.37 29.295 114.539 28.6531C114.711 28.0118 114.865 27.4496 114.998 26.9629C115.13 26.4761 115.264 26.001 115.389 25.5341H120.879C120.799 25.922 120.722 26.2984 120.647 26.6643C120.571 27.0303 120.488 27.4078 120.403 27.8027C120.318 28.1977 120.227 28.6287 120.128 29.1015L119.953 29.9053C119.823 30.5349 119.704 31.0972 119.605 31.5909C119.506 32.0846 119.39 32.6015 119.274 33.1428L117.972 33.1417Z" fill="#A7A9AB"></path><path d="M121.945 33.3461C122.061 32.7583 122.185 32.1972 122.294 31.6641C122.403 31.1309 122.534 30.5442 122.67 29.9042L122.837 29.1247C122.936 28.6519 123.029 28.2175 123.113 27.8202C123.196 27.4229 123.279 27.0396 123.358 26.6667C123.437 26.2938 123.518 25.9162 123.601 25.5329L124.869 25.4771C124.79 25.8454 124.712 26.2043 124.637 26.5563C124.561 26.9083 124.485 27.2696 124.405 27.639C124.324 28.0084 124.244 28.4103 124.149 28.8401L123.637 31.2354H123.753L126.069 28.6798C126.534 28.1756 127.01 27.6556 127.498 27.1197C127.986 26.5838 128.47 26.0537 128.951 25.5294H130.156C130.077 25.9174 129.999 26.2938 129.923 26.6597C129.848 27.0256 129.763 27.4055 129.68 27.8016C129.596 28.1977 129.501 28.638 129.395 29.1212L129.23 29.9007C129.098 30.5404 128.975 31.1297 128.859 31.6687C128.744 32.2077 128.624 32.7657 128.498 33.3426H127.245C127.366 32.7804 127.48 32.2433 127.587 31.7314C127.697 31.2203 127.813 30.6616 127.936 30.0575L128.447 27.6401H128.345L126.085 30.1214C125.601 30.6464 125.113 31.1793 124.623 31.7198C124.133 32.2604 123.641 32.8025 123.146 33.3461H121.945Z" fill="#A7A9AB"></path><path d="M130.984 33.3461C131.101 32.7653 131.224 32.2042 131.333 31.6687C131.442 31.1332 131.573 30.5419 131.71 29.896L131.877 29.1166C131.975 28.6438 132.068 28.2093 132.152 27.8132C132.235 27.4171 132.318 27.0326 132.397 26.6632C132.476 26.2938 132.554 25.9162 132.629 25.5329L133.936 25.4771C133.852 25.8644 133.77 26.2477 133.688 26.6272C133.607 27.0059 133.524 27.3962 133.44 27.8016C133.356 28.207 133.265 28.6415 133.165 29.1084L132.999 29.896C132.862 30.5419 132.735 31.1328 132.62 31.6687C132.505 32.2046 132.388 32.7637 132.271 33.3461H130.984ZM132.479 29.9274L132.712 28.8726H137.729L137.497 29.9274H132.479ZM136.19 33.3461C136.31 32.763 136.429 32.2038 136.544 31.6687C136.659 31.1336 136.786 30.5427 136.923 29.896L137.089 29.1166C137.189 28.6438 137.279 28.2093 137.364 27.8132C137.449 27.4171 137.529 27.0326 137.608 26.6632C137.687 26.2938 137.765 25.9162 137.84 25.5329H139.138C139.06 25.9201 138.983 26.2969 138.906 26.6632C138.828 27.0326 138.745 27.4159 138.663 27.8132C138.58 28.2105 138.485 28.6438 138.385 29.1166L138.22 29.896C138.085 30.5419 137.959 31.1328 137.843 31.6687C137.727 32.2046 137.61 32.7637 137.494 33.3461H136.19Z" fill="#A7A9AB"></path><path d="M139.951 33.3461C140.072 32.763 140.188 32.2038 140.3 31.6687C140.411 31.1336 140.537 30.5427 140.677 29.896L140.844 29.1166C140.942 28.6438 141.035 28.2093 141.12 27.8132C141.205 27.4171 141.285 27.0326 141.364 26.6632C141.443 26.2938 141.521 25.9162 141.596 25.5329H146.865L146.633 26.5958H141.899L142.853 25.7373C142.776 26.1106 142.698 26.4692 142.621 26.813C142.546 27.1615 142.471 27.51 142.388 27.8841C142.306 28.2581 142.222 28.6647 142.129 29.1166L141.963 29.896C141.827 30.5419 141.701 31.1328 141.586 31.6687C141.47 32.2046 141.354 32.7637 141.237 33.3461H139.951Z" fill="#A7A9AB"></path><path d="M40.0232 16.7962C39.8829 17.6987 39.6842 18.5912 39.4285 19.468C37.9809 24.3443 34.85 28.5488 30.593 31.333C30.2678 31.5467 29.9344 31.7477 29.5975 31.9428C29.1189 31.8127 28.6446 31.6668 28.1745 31.5049C31.2507 28.9176 33.7169 25.6821 35.3964 22.0301C37.0759 18.3781 37.9272 14.3999 37.8893 10.3804C36.745 8.22855 35.2171 6.30386 33.381 4.70117C33.4483 4.9335 33.518 5.16582 33.5784 5.39815C35.1351 11.4988 34.2349 17.9668 31.0716 23.4106C29.5446 26.0247 27.541 28.3293 25.1647 30.205C24.6868 29.9541 24.2183 29.6831 23.7591 29.3919C27.2119 25.8544 29.59 21.4097 30.6169 16.5743C31.6438 11.7389 31.2774 6.7113 29.5603 2.07585C27.6574 1.06189 25.6037 0.360966 23.478 0C23.9455 0.779646 24.3637 1.5878 24.7302 2.4197C22.0346 1.12638 19.1221 0.345644 16.141 0.117327C12.9829 0.752218 10.0243 2.13887 7.51583 4.15984C8.36873 3.8294 9.24219 3.55467 10.1307 3.3374C15.0773 2.15282 20.2837 2.76205 24.8231 5.05663C25.1716 5.23088 25.512 5.41906 25.8489 5.61306C25.9767 6.09398 26.0878 6.578 26.1823 7.06511C22.4031 5.69421 18.3675 5.17607 14.3646 5.5478C10.3617 5.91954 6.49051 7.17195 3.0284 9.21531C1.73689 11.2825 0.833804 13.5681 0.363594 15.9598C0.53087 15.7856 0.695823 15.6113 0.867746 15.4406C5.37223 11.0409 11.4243 8.58594 17.7209 8.60429C20.7482 8.62042 23.7457 9.20315 26.5586 10.3224C26.5795 10.8645 26.5795 11.4066 26.5586 11.9487C21.769 10.7258 16.7308 10.8874 12.0294 12.4146C7.32798 13.9419 3.15658 16.772 0 20.5762C0.0730376 22.7308 0.493139 24.8596 1.24412 26.8804C1.6852 26.0861 2.1756 25.3203 2.71244 24.5873C2.94062 27.5686 3.72094 30.4815 5.01365 33.1777C7.14274 35.5945 9.82275 37.4629 12.8269 38.6246C12.1146 38.0517 11.4402 37.4332 10.8079 36.773C7.30759 33.0791 5.23168 28.2629 4.94976 23.1817C4.92769 22.7938 4.91956 22.4046 4.91956 22.0201C5.27115 21.6708 5.63474 21.3328 6.01034 21.006C6.7116 24.9654 8.28019 28.7207 10.6036 32.0025C12.9271 35.2843 15.9479 38.0115 19.4494 39.9884C21.8849 40.0752 24.3158 39.7165 26.6225 38.9301C26.3902 38.872 26.1579 38.814 25.9255 38.7524C19.8635 37.0506 14.7117 33.0374 11.5781 27.5762C10.0783 24.9461 9.08426 22.0585 8.64727 19.0626C9.10418 18.7745 9.57194 18.5034 10.0505 18.2494C11.3888 23.0074 14.0494 27.2881 17.7232 30.5945C21.397 33.9009 25.9334 36.0973 30.8056 36.9286C32.635 35.7878 34.2687 34.3596 35.6438 32.6991C34.7356 32.7138 33.8274 32.6719 32.9244 32.5736C35.392 30.8855 37.5243 28.7533 39.2124 26.2857C40.2412 23.2336 40.5193 19.9785 40.0232 16.7962ZM20.122 26.5168C17.3234 23.7794 15.33 20.3262 14.3591 16.5337C18.1286 15.4789 22.1153 15.4789 25.8849 16.5337C24.9138 20.3261 22.9204 23.7793 20.122 26.5168Z" fill="#5AB058"></path><path d="M82.6819 17.1098H76.5007C76.3712 17.1139 76.2425 17.0886 76.1242 17.0357C76.0058 16.9829 75.901 16.9039 75.8176 16.8048C75.7342 16.7056 75.6744 16.5888 75.6426 16.4632C75.6108 16.3375 75.6079 16.2063 75.6342 16.0794L77.106 6.80838H72.9821L71.5138 16.0794C71.1537 18.3551 72.7057 20.1998 74.9813 20.1998H86.3131L86.8022 17.1098L88.4285 6.80838H84.314L82.6819 17.1098Z" fill="#5AB058"></path><path d="M54.8179 10.9345L53.3496 20.2056H68.7995L70.9195 6.81419H59.5911C57.3155 6.80838 55.178 8.65307 54.8179 10.9345ZM58.9383 10.9345C58.9892 10.6522 59.1354 10.3959 59.3525 10.2083C59.5696 10.0208 59.8445 9.91344 60.1313 9.90416H66.3124L65.1705 17.1156H57.959L58.9383 10.9345Z" fill="#5AB058"></path><path d="M54.8179 10.9345L53.3496 20.2056H68.7995L70.9195 6.81419H59.5911C57.3155 6.80838 55.178 8.65307 54.8179 10.9345ZM58.9383 10.9345C58.9892 10.6522 59.1354 10.3959 59.3525 10.2083C59.5696 10.0208 59.8445 9.91344 60.1313 9.90416H66.3124L65.1705 17.1156H57.959L58.9383 10.9345Z" fill="#5AB058"></path><path d="M107.354 10.9345L105.886 20.2056H110.006L110.495 17.1156H117.707L117.216 20.2056H121.337L123.456 6.80838H112.125C109.852 6.80838 107.714 8.65307 107.354 10.9345ZM112.667 9.90416H118.849L118.196 14.0245H110.985L111.474 10.9345C111.524 10.651 111.67 10.3932 111.887 10.2045C112.104 10.0158 112.38 9.90767 112.667 9.89835V9.90416Z" fill="#5AB058"></path><path d="M101.009 11.9579H93.7991L94.6146 6.80722H90.4942L89.6787 11.9579L89.1885 15.0491L88.373 20.1998H92.4934L93.3089 15.0491H100.52L99.7049 20.1998H103.825L104.641 15.0491L105.13 11.9579L105.946 6.80722H101.826L101.009 11.9579Z" fill="#5AB058"></path><path d="M174.45 6.80722L170.028 11.9579H166.938L167.754 6.80722H163.633L162.817 11.9579L162.328 15.0491L161.513 20.1998H165.633L166.449 15.0491H169.538L172.329 20.1998H176.964L173.337 13.5041L179.085 6.80722H174.45Z" fill="#5AB058"></path><path d="M155.82 17.1098H149.641C149.511 17.1139 149.382 17.0885 149.264 17.0357C149.146 16.9829 149.041 16.9039 148.957 16.8048C148.874 16.7056 148.814 16.5889 148.782 16.4633C148.75 16.3376 148.747 16.2064 148.773 16.0794L150.241 6.80838H146.121L144.652 16.0794C144.292 18.3551 145.845 20.1998 148.121 20.1998H159.452L159.941 17.1098L161.573 6.80838H157.453L155.82 17.1098Z" fill="#5AB058"></path><path d="M184.236 6.80838C181.96 6.80838 179.821 8.65307 179.462 10.9287L177.994 20.1998H182.119L182.609 17.1098H189.82L189.331 20.1998H193.451L195.572 6.80838H184.236ZM190.304 14.0187H183.094L183.583 10.9287C183.634 10.6463 183.78 10.3899 183.998 10.2024C184.215 10.0149 184.49 9.90757 184.777 9.89835H190.957L190.304 14.0187Z" fill="#5AB058"></path><path d="M133.623 14.1662L129.638 6.80722H125.517L123.397 20.1998H127.518L128.706 12.6944L131.097 17.1087H135.218L139.008 12.6944L137.818 20.1998H141.94L144.06 6.80722H139.939L133.623 14.1662Z" fill="#5AB058"></path></g><defs><clipPath id="clip0_101_1117"><rect width="195.566" height="40" fill="white"></rect></clipPath></defs></svg> 