<?xml version="1.0" standalone="no"?>
<!DOCTYPE svg PUBLIC "-//W3C//DTD SVG 20010904//EN"
 "http://www.w3.org/TR/2001/REC-SVG-20010904/DTD/svg10.dtd">
<svg version="1.0" xmlns="http://www.w3.org/2000/svg"
 width="760.000000pt" height="156.000000pt" viewBox="0 0 760.000000 156.000000"
 preserveAspectRatio="xMidYMid meet">

<g transform="translate(0.000000,156.000000) scale(0.100000,-0.100000)"
fill="#0C1729FF" stroke="none">
<path d="M920 1554 c0 -3 9 -23 21 -45 14 -28 16 -39 7 -36 -74 31 -216 70
-269 74 -55 5 -80 1 -146 -21 -79 -26 -183 -82 -213 -113 -13 -14 -13 -15 5
-9 74 27 162 39 270 39 138 1 217 -16 337 -70 59 -27 77 -40 81 -59 2 -13 3
-24 1 -24 -2 0 -36 9 -76 20 -229 61 -446 48 -676 -42 -69 -27 -115 -51 -137
-73 -32 -33 -84 -148 -100 -225 l-7 -34 51 46 c106 95 246 171 389 210 104 29
345 31 442 5 130 -36 130 -36 130 -69 0 -29 -1 -30 -32 -24 -193 40 -391 24
-584 -49 -128 -48 -313 -176 -384 -264 -30 -39 -30 -40 -20 -108 5 -37 17 -92
26 -122 l16 -54 26 44 26 44 18 -90 c30 -155 61 -225 127 -288 62 -59 144
-115 205 -141 21 -9 39 -16 40 -16 1 0 -25 28 -59 63 -75 77 -130 159 -171
257 -56 130 -82 312 -49 340 20 17 20 16 39 -60 61 -240 229 -477 435 -614
l73 -49 74 6 c41 4 104 14 140 23 l67 17 -69 23 c-301 101 -533 349 -610 651
-23 91 -23 96 -7 109 30 23 38 16 63 -57 102 -300 376 -545 703 -630 l77 -20
48 35 c26 19 69 57 97 85 l49 51 -54 0 -55 1 30 21 c52 36 191 185 209 222 24
52 46 176 45 259 -1 104 -12 122 -28 45 -16 -81 -85 -226 -145 -305 -52 -69
-123 -136 -193 -182 -50 -33 -60 -36 -82 -22 -11 7 -6 16 23 41 59 53 158 182
204 269 72 134 113 275 127 433 l7 78 -40 62 c-42 64 -150 177 -139 145 33
-92 34 -358 2 -477 -35 -133 -121 -287 -220 -397 -69 -78 -98 -96 -128 -82
l-25 11 64 82 c153 193 238 462 219 696 -10 116 -49 270 -75 292 -26 21 -220
85 -220 72z m18 -625 l64 -11 -5 -35 c-10 -59 -92 -214 -153 -287 l-57 -70
-38 43 c-57 64 -109 147 -146 231 -46 106 -45 116 20 128 74 14 239 14 315 1z"/>
<path d="M2223 1014 c-70 -41 -87 -84 -118 -284 -14 -96 -29 -183 -31 -192 -5
-17 14 -18 300 -18 168 0 306 3 306 8 0 7 64 416 75 480 l6 32 -248 0 c-248 0
-248 0 -290 -26z m347 -111 c0 -18 -26 -186 -36 -235 l-6 -28 -134 0 c-101 0
-134 3 -134 13 0 6 9 63 19 126 13 85 23 118 36 128 13 9 54 13 137 13 106 0
118 -2 118 -17z"/>
<path d="M2806 856 c-34 -213 -32 -255 13 -300 l31 -31 255 -3 c193 -2 255 0
255 9 0 14 68 453 75 487 5 21 3 22 -78 22 l-83 0 -28 -182 c-15 -101 -30
-191 -33 -200 -4 -16 -19 -18 -127 -18 -93 0 -126 3 -135 14 -9 10 -6 51 14
172 14 88 28 171 31 187 l6 27 -84 0 -84 0 -28 -184z"/>
<path d="M3475 793 c-21 -137 -40 -254 -43 -260 -3 -10 17 -13 80 -13 l85 0
12 83 c19 129 3 117 157 117 101 0 134 -3 134 -12 0 -16 -18 -135 -25 -165 -5
-22 -3 -23 78 -23 l83 0 38 243 c20 133 40 250 42 260 5 15 -3 17 -79 17 l-84
0 -12 -82 c-19 -130 -3 -118 -157 -118 -104 0 -134 3 -134 13 0 7 5 40 10 73
6 32 12 71 15 87 l5 27 -83 0 -83 0 -39 -247z"/>
<path d="M4272 1019 c-78 -39 -93 -73 -127 -292 -14 -89 -27 -172 -30 -184 -5
-22 -3 -23 79 -23 l84 0 7 60 7 60 139 0 140 0 -6 -37 c-3 -21 -8 -48 -11 -60
-4 -22 -2 -23 79 -23 l83 0 39 248 c21 136 40 253 43 260 3 9 -49 12 -239 12
-228 0 -247 -1 -287 -21z m333 -156 c-13 -113 2 -103 -152 -103 l-136 0 7 63
c11 94 16 97 164 97 l124 0 -7 -57z"/>
<path d="M4870 1028 c0 -13 -68 -452 -75 -485 -5 -22 -3 -23 78 -23 l84 0 17
118 c27 181 22 175 71 85 l43 -78 83 -3 84 -3 65 77 c35 42 66 72 68 65 3 -10
-17 -150 -34 -233 l-6 -28 84 0 84 0 38 248 c22 136 41 253 44 260 3 9 -17 12
-81 12 l-85 0 -118 -139 c-66 -77 -122 -137 -126 -133 -3 4 -39 67 -78 140
l-72 132 -84 0 c-57 0 -84 -4 -84 -12z"/>
<path d="M5670 1028 c0 -7 -13 -95 -29 -195 -33 -204 -31 -230 20 -279 l30
-29 253 -3 252 -3 27 178 c15 98 34 215 41 261 l13 82 -82 0 -82 0 -27 -172
c-15 -95 -29 -185 -32 -200 l-6 -28 -123 0 c-95 0 -125 3 -135 15 -9 11 -6 50
15 182 14 92 28 176 31 186 5 15 -3 17 -80 17 -62 0 -86 -3 -86 -12z"/>
<path d="M6350 1030 c0 -12 -68 -445 -76 -482 l-6 -28 84 0 84 0 14 98 15 97
60 0 60 0 51 -95 51 -95 92 -3 c50 -1 91 0 91 3 0 3 -29 59 -65 124 -36 65
-65 123 -65 128 0 5 47 65 105 132 58 67 105 124 105 127 0 2 -40 4 -88 4
l-89 0 -87 -100 -87 -100 -55 0 c-63 0 -60 -6 -40 118 l13 82 -83 0 c-48 0
-84 -4 -84 -10z"/>
<path d="M7091 1029 c-90 -36 -113 -82 -146 -290 -14 -90 -28 -176 -31 -191
l-6 -28 85 0 84 0 7 60 7 60 140 0 c139 0 139 0 135 -22 -3 -13 -8 -40 -11
-61 l-6 -38 83 3 83 3 40 258 41 257 -240 -1 c-133 0 -252 -5 -265 -10z m315
-156 c-4 -27 -10 -63 -13 -80 l-5 -33 -140 0 c-128 0 -139 1 -134 18 3 9 8 39
12 65 10 74 17 77 161 77 l125 0 -6 -47z"/>
</g>
</svg>
